%
M48
M72
T01C0.01378
T02C0.03200
T03C0.03600
T04C0.04000
T05C0.04331
T06C0.04400
T07C0.05200
T08C0.12598
T09C0.13000
%
T01
X249500Y52000
X254500Y52000
X259500Y52000
X259500Y57000
X254500Y57000
X254500Y62000
X259500Y62000
X249500Y62000
X249500Y57000
X292000Y57000
X252000Y144500
X252000Y149500
X252000Y154500
X322000Y154500
X322000Y149500
X322000Y159500
T02
X329500Y159500
X347000Y164500
X361393Y155107
X329500Y139500
X347000Y134500
X382607Y133893
X352000Y84500
X327000Y79500
X327000Y69500
X327000Y59500
X327000Y49500
X327000Y39500
X327000Y29500
X312000Y17000
X342000Y17000
X352000Y24500
X182000Y119500
X182000Y149500
X177000Y159500
X164500Y159500
X152000Y159500
X139500Y159500
X127000Y159500
X114500Y159500
X102000Y159500
X89500Y159500
X77000Y159500
X77000Y189500
X89500Y189500
X102000Y189500
X114500Y189500
X127000Y189500
X139500Y189500
X152000Y189500
X164500Y189500
X177000Y189500
X189500Y189500
X217000Y162000
X189500Y159500
X247000Y162000
X269500Y177000
X279500Y177000
X97000Y124500
X67000Y124500
T03
X222000Y179500
X252000Y179500
X254500Y122000
X284500Y122000
X302000Y77000
X302000Y47000
T04
X169000Y132000
X110000Y132000
X107000Y109000
X67000Y109000
X67000Y20000
X107000Y20000
T05
X194500Y112000
X194500Y124500
X224500Y124500
X224500Y112000
T06
X157000Y109500
X142000Y109500
X142000Y69500
X157000Y69500
X157000Y59500
X142000Y59500
X142000Y19500
X157000Y19500
X382000Y99500
X382000Y109500
X382000Y119500
T07
X317000Y177000
X302000Y177000
X52000Y132000
X22000Y54500
T08
X21685Y21685
X21685Y179165
X376016Y179165
X376016Y21685
T09
X313000Y109500
M30
