G75*
%MOIN*%
%OFA0B0*%
%FSLAX25Y25*%
%IPPOS*%
%LPD*%
%AMOC8*
5,1,8,0,0,1.08239X$1,22.5*
%
%ADD10C,0.00000*%
%ADD11OC8,0.05400*%
%ADD12OC8,0.04800*%
%ADD13OC8,0.06000*%
%ADD14C,0.06600*%
%ADD15C,0.00960*%
%ADD16R,0.04600X0.06300*%
%ADD17R,0.00600X0.07200*%
%ADD18C,0.04800*%
%ADD19C,0.07800*%
%ADD20R,0.07500X0.05000*%
%ADD21R,0.08000X0.02600*%
%ADD22OC8,0.06300*%
%ADD23C,0.06300*%
%ADD24C,0.23000*%
%ADD25C,0.06600*%
%ADD26C,0.13000*%
%ADD27C,0.06693*%
D10*
X0002000Y0002000D02*
X0002000Y0198850D01*
X0395701Y0198850D01*
X0395701Y0002000D01*
X0002000Y0002000D01*
X0306500Y0109500D02*
X0306502Y0109661D01*
X0306508Y0109821D01*
X0306518Y0109982D01*
X0306532Y0110142D01*
X0306550Y0110302D01*
X0306571Y0110461D01*
X0306597Y0110620D01*
X0306627Y0110778D01*
X0306660Y0110935D01*
X0306698Y0111092D01*
X0306739Y0111247D01*
X0306784Y0111401D01*
X0306833Y0111554D01*
X0306886Y0111706D01*
X0306942Y0111857D01*
X0307003Y0112006D01*
X0307066Y0112154D01*
X0307134Y0112300D01*
X0307205Y0112444D01*
X0307279Y0112586D01*
X0307357Y0112727D01*
X0307439Y0112865D01*
X0307524Y0113002D01*
X0307612Y0113136D01*
X0307704Y0113268D01*
X0307799Y0113398D01*
X0307897Y0113526D01*
X0307998Y0113651D01*
X0308102Y0113773D01*
X0308209Y0113893D01*
X0308319Y0114010D01*
X0308432Y0114125D01*
X0308548Y0114236D01*
X0308667Y0114345D01*
X0308788Y0114450D01*
X0308912Y0114553D01*
X0309038Y0114653D01*
X0309166Y0114749D01*
X0309297Y0114842D01*
X0309431Y0114932D01*
X0309566Y0115019D01*
X0309704Y0115102D01*
X0309843Y0115182D01*
X0309985Y0115258D01*
X0310128Y0115331D01*
X0310273Y0115400D01*
X0310420Y0115466D01*
X0310568Y0115528D01*
X0310718Y0115586D01*
X0310869Y0115641D01*
X0311022Y0115692D01*
X0311176Y0115739D01*
X0311331Y0115782D01*
X0311487Y0115821D01*
X0311643Y0115857D01*
X0311801Y0115888D01*
X0311959Y0115916D01*
X0312118Y0115940D01*
X0312278Y0115960D01*
X0312438Y0115976D01*
X0312598Y0115988D01*
X0312759Y0115996D01*
X0312920Y0116000D01*
X0313080Y0116000D01*
X0313241Y0115996D01*
X0313402Y0115988D01*
X0313562Y0115976D01*
X0313722Y0115960D01*
X0313882Y0115940D01*
X0314041Y0115916D01*
X0314199Y0115888D01*
X0314357Y0115857D01*
X0314513Y0115821D01*
X0314669Y0115782D01*
X0314824Y0115739D01*
X0314978Y0115692D01*
X0315131Y0115641D01*
X0315282Y0115586D01*
X0315432Y0115528D01*
X0315580Y0115466D01*
X0315727Y0115400D01*
X0315872Y0115331D01*
X0316015Y0115258D01*
X0316157Y0115182D01*
X0316296Y0115102D01*
X0316434Y0115019D01*
X0316569Y0114932D01*
X0316703Y0114842D01*
X0316834Y0114749D01*
X0316962Y0114653D01*
X0317088Y0114553D01*
X0317212Y0114450D01*
X0317333Y0114345D01*
X0317452Y0114236D01*
X0317568Y0114125D01*
X0317681Y0114010D01*
X0317791Y0113893D01*
X0317898Y0113773D01*
X0318002Y0113651D01*
X0318103Y0113526D01*
X0318201Y0113398D01*
X0318296Y0113268D01*
X0318388Y0113136D01*
X0318476Y0113002D01*
X0318561Y0112865D01*
X0318643Y0112727D01*
X0318721Y0112586D01*
X0318795Y0112444D01*
X0318866Y0112300D01*
X0318934Y0112154D01*
X0318997Y0112006D01*
X0319058Y0111857D01*
X0319114Y0111706D01*
X0319167Y0111554D01*
X0319216Y0111401D01*
X0319261Y0111247D01*
X0319302Y0111092D01*
X0319340Y0110935D01*
X0319373Y0110778D01*
X0319403Y0110620D01*
X0319429Y0110461D01*
X0319450Y0110302D01*
X0319468Y0110142D01*
X0319482Y0109982D01*
X0319492Y0109821D01*
X0319498Y0109661D01*
X0319500Y0109500D01*
X0319498Y0109339D01*
X0319492Y0109179D01*
X0319482Y0109018D01*
X0319468Y0108858D01*
X0319450Y0108698D01*
X0319429Y0108539D01*
X0319403Y0108380D01*
X0319373Y0108222D01*
X0319340Y0108065D01*
X0319302Y0107908D01*
X0319261Y0107753D01*
X0319216Y0107599D01*
X0319167Y0107446D01*
X0319114Y0107294D01*
X0319058Y0107143D01*
X0318997Y0106994D01*
X0318934Y0106846D01*
X0318866Y0106700D01*
X0318795Y0106556D01*
X0318721Y0106414D01*
X0318643Y0106273D01*
X0318561Y0106135D01*
X0318476Y0105998D01*
X0318388Y0105864D01*
X0318296Y0105732D01*
X0318201Y0105602D01*
X0318103Y0105474D01*
X0318002Y0105349D01*
X0317898Y0105227D01*
X0317791Y0105107D01*
X0317681Y0104990D01*
X0317568Y0104875D01*
X0317452Y0104764D01*
X0317333Y0104655D01*
X0317212Y0104550D01*
X0317088Y0104447D01*
X0316962Y0104347D01*
X0316834Y0104251D01*
X0316703Y0104158D01*
X0316569Y0104068D01*
X0316434Y0103981D01*
X0316296Y0103898D01*
X0316157Y0103818D01*
X0316015Y0103742D01*
X0315872Y0103669D01*
X0315727Y0103600D01*
X0315580Y0103534D01*
X0315432Y0103472D01*
X0315282Y0103414D01*
X0315131Y0103359D01*
X0314978Y0103308D01*
X0314824Y0103261D01*
X0314669Y0103218D01*
X0314513Y0103179D01*
X0314357Y0103143D01*
X0314199Y0103112D01*
X0314041Y0103084D01*
X0313882Y0103060D01*
X0313722Y0103040D01*
X0313562Y0103024D01*
X0313402Y0103012D01*
X0313241Y0103004D01*
X0313080Y0103000D01*
X0312920Y0103000D01*
X0312759Y0103004D01*
X0312598Y0103012D01*
X0312438Y0103024D01*
X0312278Y0103040D01*
X0312118Y0103060D01*
X0311959Y0103084D01*
X0311801Y0103112D01*
X0311643Y0103143D01*
X0311487Y0103179D01*
X0311331Y0103218D01*
X0311176Y0103261D01*
X0311022Y0103308D01*
X0310869Y0103359D01*
X0310718Y0103414D01*
X0310568Y0103472D01*
X0310420Y0103534D01*
X0310273Y0103600D01*
X0310128Y0103669D01*
X0309985Y0103742D01*
X0309843Y0103818D01*
X0309704Y0103898D01*
X0309566Y0103981D01*
X0309431Y0104068D01*
X0309297Y0104158D01*
X0309166Y0104251D01*
X0309038Y0104347D01*
X0308912Y0104447D01*
X0308788Y0104550D01*
X0308667Y0104655D01*
X0308548Y0104764D01*
X0308432Y0104875D01*
X0308319Y0104990D01*
X0308209Y0105107D01*
X0308102Y0105227D01*
X0307998Y0105349D01*
X0307897Y0105474D01*
X0307799Y0105602D01*
X0307704Y0105732D01*
X0307612Y0105864D01*
X0307524Y0105998D01*
X0307439Y0106135D01*
X0307357Y0106273D01*
X0307279Y0106414D01*
X0307205Y0106556D01*
X0307134Y0106700D01*
X0307066Y0106846D01*
X0307003Y0106994D01*
X0306942Y0107143D01*
X0306886Y0107294D01*
X0306833Y0107446D01*
X0306784Y0107599D01*
X0306739Y0107753D01*
X0306698Y0107908D01*
X0306660Y0108065D01*
X0306627Y0108222D01*
X0306597Y0108380D01*
X0306571Y0108539D01*
X0306550Y0108698D01*
X0306532Y0108858D01*
X0306518Y0109018D01*
X0306508Y0109179D01*
X0306502Y0109339D01*
X0306500Y0109500D01*
D11*
X0284500Y0122000D03*
X0254500Y0122000D03*
X0302000Y0077000D03*
X0302000Y0047000D03*
X0252000Y0179500D03*
X0222000Y0179500D03*
D12*
X0189500Y0189500D03*
X0177000Y0189500D03*
X0164500Y0189500D03*
X0152000Y0189500D03*
X0139500Y0189500D03*
X0127000Y0189500D03*
X0114500Y0189500D03*
X0102000Y0189500D03*
X0089500Y0189500D03*
X0077000Y0189500D03*
X0077000Y0159500D03*
X0089500Y0159500D03*
X0102000Y0159500D03*
X0114500Y0159500D03*
X0127000Y0159500D03*
X0139500Y0159500D03*
X0152000Y0159500D03*
X0164500Y0159500D03*
X0177000Y0159500D03*
X0189500Y0159500D03*
X0182000Y0149500D03*
X0217000Y0162000D03*
X0247000Y0162000D03*
X0182000Y0119500D03*
X0097000Y0124500D03*
X0067000Y0124500D03*
X0312000Y0017000D03*
X0342000Y0017000D03*
X0352000Y0024500D03*
X0352000Y0084500D03*
X0347000Y0134500D03*
X0329500Y0139500D03*
X0329500Y0159500D03*
X0347000Y0164500D03*
D13*
X0169000Y0132000D03*
X0110000Y0132000D03*
X0107000Y0109000D03*
X0067000Y0109000D03*
X0067000Y0020000D03*
X0107000Y0020000D03*
D14*
X0142000Y0019500D03*
X0157000Y0019500D03*
X0157000Y0059500D03*
X0142000Y0059500D03*
X0142000Y0069500D03*
X0157000Y0069500D03*
X0157000Y0109500D03*
X0142000Y0109500D03*
D15*
X0361078Y0156546D02*
X0360598Y0157026D01*
X0362188Y0157026D01*
X0363312Y0155902D01*
X0363312Y0154312D01*
X0362188Y0153188D01*
X0360598Y0153188D01*
X0359474Y0154312D01*
X0359474Y0155902D01*
X0360598Y0157026D01*
X0360896Y0156306D01*
X0361890Y0156306D01*
X0362592Y0155604D01*
X0362592Y0154610D01*
X0361890Y0153908D01*
X0360896Y0153908D01*
X0360194Y0154610D01*
X0360194Y0155604D01*
X0360896Y0156306D01*
X0361194Y0155586D01*
X0361592Y0155586D01*
X0361872Y0155306D01*
X0361872Y0154908D01*
X0361592Y0154628D01*
X0361194Y0154628D01*
X0360914Y0154908D01*
X0360914Y0155306D01*
X0361194Y0155586D01*
X0382292Y0135332D02*
X0381812Y0135812D01*
X0383402Y0135812D01*
X0384526Y0134688D01*
X0384526Y0133098D01*
X0383402Y0131974D01*
X0381812Y0131974D01*
X0380688Y0133098D01*
X0380688Y0134688D01*
X0381812Y0135812D01*
X0382110Y0135092D01*
X0383104Y0135092D01*
X0383806Y0134390D01*
X0383806Y0133396D01*
X0383104Y0132694D01*
X0382110Y0132694D01*
X0381408Y0133396D01*
X0381408Y0134390D01*
X0382110Y0135092D01*
X0382408Y0134372D01*
X0382806Y0134372D01*
X0383086Y0134092D01*
X0383086Y0133694D01*
X0382806Y0133414D01*
X0382408Y0133414D01*
X0382128Y0133694D01*
X0382128Y0134092D01*
X0382408Y0134372D01*
D16*
X0370000Y0084500D03*
X0364000Y0084500D03*
D17*
X0367000Y0084500D03*
D18*
X0329400Y0079500D02*
X0324600Y0079500D01*
X0324600Y0069500D02*
X0329400Y0069500D01*
X0329400Y0059500D02*
X0324600Y0059500D01*
X0324600Y0049500D02*
X0329400Y0049500D01*
X0329400Y0039500D02*
X0324600Y0039500D01*
X0324600Y0029500D02*
X0329400Y0029500D01*
D19*
X0052000Y0128100D02*
X0052000Y0135900D01*
X0022000Y0058400D02*
X0022000Y0050600D01*
X0302000Y0173100D02*
X0302000Y0180900D01*
X0317000Y0180900D02*
X0317000Y0173100D01*
D20*
X0272000Y0088500D03*
X0272000Y0078700D03*
X0272000Y0068900D03*
X0272000Y0059100D03*
X0272000Y0049300D03*
X0272000Y0039500D03*
X0182000Y0039500D03*
X0182000Y0049300D03*
X0182000Y0078700D03*
X0182000Y0088500D03*
D21*
X0219900Y0134500D03*
X0219900Y0139500D03*
X0219900Y0144500D03*
X0219900Y0149500D03*
X0244100Y0149500D03*
X0244100Y0144500D03*
X0244100Y0139500D03*
X0244100Y0134500D03*
X0289900Y0139500D03*
X0289900Y0144500D03*
X0289900Y0149500D03*
X0289900Y0154500D03*
X0314100Y0154500D03*
X0314100Y0149500D03*
X0314100Y0144500D03*
X0314100Y0139500D03*
D22*
X0279500Y0177000D03*
D23*
X0269500Y0177000D03*
D24*
X0376016Y0179165D03*
X0376016Y0021685D03*
X0021685Y0021685D03*
X0021685Y0179165D03*
D25*
X0378700Y0119500D02*
X0385300Y0119500D01*
X0385300Y0109500D02*
X0378700Y0109500D01*
X0378700Y0099500D02*
X0385300Y0099500D01*
D26*
X0313000Y0109500D03*
D27*
X0224500Y0112000D03*
X0224500Y0124500D03*
X0194500Y0124500D03*
X0194500Y0112000D03*
M02*
